<?xml version="1.0" encoding="utf-8"?>
<!-- Generator: Adobe Illustrator 24.1.2, SVG Export Plug-In . SVG Version: 6.00 Build 0)  -->
<svg version="1.1" id="Слой_1" xmlns="http://www.w3.org/2000/svg" xmlns:xlink="http://www.w3.org/1999/xlink" x="0px" y="0px"
	 viewBox="0 0 24 24" style="enable-background:new 0 0 24 24;" xml:space="preserve">
<style type="text/css">
	.st0{fill:#FFFFFF;}
</style>
<path class="st0" d="M12.8,16.4H11V9.8h1.9V16.4z M11.9,5.2c0.6,0,1.2,0.6,1.2,1.4s-0.5,1.4-1.2,1.4c-0.6,0-1.2-0.6-1.2-1.4
	S11.2,5.2,11.9,5.2z M11.9,2.2c5.1,0,9.3,3.9,9.3,8.7c0,5.4-4.8,8.7-9.2,8.7c-1.8,0-3.1-0.4-4.1-0.7c-0.9,0.7-1.5,1.1-4,2
	c0.5-1.5,0.7-3,0.6-4.7c-0.8-1.1-1.9-2.6-1.9-5.3C2.6,6.1,6.8,2.2,11.9,2.2z M11.9,0C6,0,0.8,4.6,0.8,10.9c0,2.2,0.7,4.4,1.9,6.1
	c0.1,2-0.9,4.9-1.8,6.9c2.4-0.5,5.8-1.6,7.4-2.8c1.3,0.4,2.6,0.5,3.8,0.5c6.6,0,11-5.3,11-10.9C23,4.6,17.7,0,11.9,0z"/>
</svg>
